<svg width="50" height="50" viewBox="0 0 50 50" fill="none" xmlns="http://www.w3.org/2000/svg">
<path d="M34.9213 18.1991L34.875 18.2454L40.1667 23.537C40.1945 23.5648 40.2176 23.5879 40.2408 23.6157L40.2454 23.6204C40.2685 23.6481 40.2917 23.6759 40.3148 23.7037C40.338 23.7315 40.3611 23.7639 40.3843 23.7916C40.4074 23.8194 40.426 23.8518 40.4491 23.8796C40.4676 23.912 40.4861 23.9398 40.5093 23.9722C40.5278 24.0046 40.5463 24.037 40.5602 24.0648C40.5787 24.0972 40.5926 24.1296 40.6065 24.162C40.6065 24.1666 40.6111 24.1713 40.6158 24.1759C40.6297 24.2037 40.6389 24.2315 40.6528 24.2592C40.6667 24.2916 40.6806 24.3241 40.6898 24.3611C40.6991 24.3935 40.713 24.4305 40.7222 24.4629C40.7315 24.4954 40.7408 24.5324 40.75 24.5648C40.7593 24.6018 40.7685 24.6342 40.7732 24.6666C40.7778 24.6944 40.7871 24.7268 40.7871 24.7546C40.7871 24.7639 40.7917 24.7778 40.7917 24.787C40.7963 24.8102 40.7963 24.8379 40.801 24.8611C40.801 24.8657 40.801 24.8704 40.801 24.8796C40.8056 24.912 40.8056 24.9398 40.8056 24.9722C40.8056 24.9907 40.8056 25.0092 40.8102 25.0278V25.0463C40.8102 25.0648 40.8102 25.0787 40.8056 25.0972C40.8056 25.1018 40.8056 25.1018 40.8056 25.1065C40.8056 25.1389 40.801 25.1713 40.801 25.2037C40.801 25.2083 40.801 25.2176 40.801 25.2222C40.7963 25.25 40.7963 25.2778 40.7917 25.3055C40.7917 25.3102 40.7917 25.3194 40.7871 25.3287C40.7824 25.3611 40.7778 25.3935 40.7685 25.4213C40.7639 25.4583 40.7547 25.4907 40.7454 25.5231C40.7361 25.5602 40.7269 25.5926 40.7176 25.625C40.7084 25.6574 40.6945 25.6944 40.6852 25.7268C40.6713 25.7592 40.6621 25.7916 40.6482 25.8287C40.6343 25.8611 40.6204 25.8935 40.6065 25.9259C40.5741 25.9907 40.5417 26.0555 40.5047 26.1157C40.4769 26.162 40.4491 26.2083 40.4167 26.25C40.4167 26.25 40.4167 26.2546 40.4121 26.2546C40.3982 26.2778 40.3797 26.3009 40.3658 26.3194C40.3472 26.3426 40.3334 26.3611 40.3148 26.3842C40.2917 26.412 40.2685 26.4398 40.2408 26.4676C40.2176 26.4954 40.1898 26.5231 40.1621 26.5509L31.5787 35.1435L19.963 46.7592H13.8334L28.463 32.1296L35.4954 25.0926L35.5417 25.0463L35.4954 25L31.8056 21.3102L31.7593 21.3565L6.36114 46.7592H0.138916L14.9537 31.9398L14.9074 31.8935L14.9537 31.8472L9.66206 26.5555C9.63429 26.5278 9.61114 26.5046 9.58799 26.4768C9.58336 26.4722 9.58336 26.4722 9.57873 26.4676C9.56021 26.4491 9.54169 26.4259 9.52318 26.4028C9.51392 26.3889 9.50466 26.3796 9.4954 26.3657C9.4954 26.3657 9.49077 26.3611 9.49077 26.3565C9.47688 26.3379 9.46299 26.3194 9.4491 26.3009L9.44447 26.2963C9.43984 26.287 9.43058 26.2778 9.42595 26.2685C9.40743 26.2454 9.39355 26.2222 9.37503 26.1944C9.35651 26.1713 9.34262 26.1435 9.32873 26.1204C9.28706 26.0555 9.25466 25.9907 9.22225 25.9213C9.21762 25.912 9.21299 25.8981 9.20836 25.8889C9.19447 25.8611 9.18521 25.8333 9.17132 25.8055C9.16206 25.787 9.15743 25.7685 9.14818 25.7453C9.14355 25.7407 9.14355 25.7315 9.13892 25.7222C9.13429 25.7037 9.12503 25.6852 9.1204 25.6713C9.10651 25.6296 9.09725 25.5879 9.08336 25.5463C9.0741 25.5139 9.06947 25.4861 9.06021 25.4537C9.05558 25.4213 9.04632 25.3935 9.04169 25.3657V25.3611C9.03706 25.3333 9.03243 25.3009 9.0278 25.2731C9.02318 25.2454 9.02318 25.2129 9.01855 25.1852C9.01855 25.1805 9.01855 25.1713 9.01855 25.1666C9.01855 25.1435 9.01392 25.1157 9.01392 25.0879C9.01392 25.0787 9.01392 25.0648 9.01392 25.0555V25.0463C9.01392 25.0324 9.01392 25.0185 9.01392 25.0092C9.01392 24.9861 9.01855 24.9583 9.01855 24.9352C9.01855 24.9259 9.01855 24.9213 9.01855 24.912C9.02318 24.8842 9.02318 24.8518 9.0278 24.8241C9.03243 24.7963 9.03706 24.7639 9.04169 24.7361V24.7315C9.04632 24.7037 9.05095 24.6713 9.06021 24.6435C9.06484 24.6111 9.0741 24.5833 9.08336 24.5509C9.09262 24.5231 9.09725 24.4907 9.10651 24.4629C9.10651 24.4583 9.11114 24.4537 9.11114 24.4491C9.1204 24.4259 9.12503 24.3981 9.13429 24.375C9.13892 24.3611 9.14355 24.3518 9.14818 24.3379C9.16206 24.3009 9.17595 24.2592 9.19447 24.2222C9.1991 24.2129 9.1991 24.2037 9.20373 24.1991C9.20836 24.1898 9.21299 24.1852 9.21299 24.1759C9.21299 24.1713 9.21762 24.1666 9.21762 24.162C9.22225 24.1528 9.22688 24.1435 9.23151 24.1342C9.25003 24.0926 9.27318 24.0509 9.29632 24.0139C9.30095 24.0046 9.31021 23.9907 9.31484 23.9815C9.31947 23.9722 9.3241 23.9629 9.32873 23.9537C9.34262 23.9305 9.35651 23.9074 9.3704 23.8889C9.37966 23.875 9.38892 23.8565 9.40281 23.8426C9.41206 23.8287 9.42595 23.8102 9.43521 23.7963C9.44447 23.7824 9.45373 23.7731 9.45836 23.7639C9.46762 23.75 9.47688 23.7407 9.48614 23.7315C9.50466 23.7083 9.52318 23.6898 9.53706 23.6666C9.55558 23.6481 9.5741 23.6296 9.58799 23.6065C9.59725 23.5972 9.60188 23.5879 9.61114 23.5833C9.62503 23.5694 9.63892 23.5555 9.6528 23.5416C9.65743 23.537 9.66206 23.5324 9.66669 23.5278L19.051 14.1435L28.4491 4.74535L29.8658 3.33332L29.9537 3.24072H36.088L31.5695 7.75924L22.1713 17.1574L14.3287 25L14.2824 25.0463L14.3287 25.0926L18.0648 28.8287L30.1945 16.6991L30.2176 16.6759L43.5602 3.33332L43.6482 3.24535L43.6574 3.24072H49.8797L46.6713 6.44906L34.9213 18.1991Z" fill="#FC80FF"/>
</svg>
